STARTFONT 2.1
COMMENT
COMMENT Converted from OpenType font "SStock (2).ttf" by "otf2bdf 3.0".
COMMENT
FONT -FreeType-SStock-Medium-R-Normal--13-130-75-75-P-77-ISO10646-1
SIZE 13 75 75
FONTBOUNDINGBOX 14 15 -2 -4
STARTPROPERTIES 19
FOUNDRY "FreeType"
FAMILY_NAME "SStock"
WEIGHT_NAME "Medium"
SLANT "R"
SETWIDTH_NAME "Normal"
ADD_STYLE_NAME ""
PIXEL_SIZE 13
POINT_SIZE 130
RESOLUTION_X 75
RESOLUTION_Y 75
SPACING "P"
AVERAGE_WIDTH 77
CHARSET_REGISTRY "ISO10646"
CHARSET_ENCODING "1"
FONT_ASCENT 10
FONT_DESCENT 3
COPYRIGHT "ImBenji"
_OTF_FONTFILE "SStock (2).ttf"
_OTF_PSNAME "SStock"
ENDPROPERTIES
CHARS 74
STARTCHAR 0020
ENCODING 32
SWIDTH 295 0
DWIDTH 4 0
BBX 0 0 0 0
BITMAP
ENDCHAR
STARTCHAR 0021
ENCODING 33
SWIDTH 221 0
DWIDTH 3 0
BBX 2 12 -1 -1
BITMAP
C0
C0
C0
C0
C0
C0
C0
C0
C0
00
C0
C0
ENDCHAR
STARTCHAR 0026
ENCODING 38
SWIDTH 812 0
DWIDTH 11 0
BBX 11 12 -1 -1
BITMAP
3C00
7E00
6600
6600
7E00
3C00
78C0
EFC0
C700
EF80
7DC0
38E0
ENDCHAR
STARTCHAR 002C
ENCODING 44
SWIDTH 221 0
DWIDTH 3 0
BBX 2 4 -1 -3
BITMAP
C0
C0
40
80
ENDCHAR
STARTCHAR 002D
ENCODING 45
SWIDTH 295 0
DWIDTH 4 0
BBX 4 2 -1 2
BITMAP
F0
F0
ENDCHAR
STARTCHAR 002E
ENCODING 46
SWIDTH 221 0
DWIDTH 3 0
BBX 2 2 -1 -1
BITMAP
C0
C0
ENDCHAR
STARTCHAR 002F
ENCODING 47
SWIDTH 443 0
DWIDTH 6 0
BBX 6 15 -2 -4
BITMAP
04
04
0C
0C
0C
18
18
38
30
30
60
60
60
C0
C0
ENDCHAR
STARTCHAR 0030
ENCODING 48
SWIDTH 664 0
DWIDTH 9 0
BBX 8 12 -1 -1
BITMAP
3C
7E
66
C3
C3
C3
C3
C3
C3
66
7E
3C
ENDCHAR
STARTCHAR 0031
ENCODING 49
SWIDTH 295 0
DWIDTH 4 0
BBX 4 12 -1 -1
BITMAP
30
F0
F0
30
30
30
30
30
30
30
30
30
ENDCHAR
STARTCHAR 0032
ENCODING 50
SWIDTH 590 0
DWIDTH 8 0
BBX 7 12 -1 -1
BITMAP
78
FC
CE
86
06
0E
0C
38
70
E0
FE
FE
ENDCHAR
STARTCHAR 0033
ENCODING 51
SWIDTH 590 0
DWIDTH 8 0
BBX 7 12 -1 -1
BITMAP
FE
FE
0C
08
18
3C
0E
06
06
8E
FC
78
ENDCHAR
STARTCHAR 0034
ENCODING 52
SWIDTH 664 0
DWIDTH 9 0
BBX 8 12 -1 -1
BITMAP
06
0E
0E
1E
3E
76
E6
FF
FF
06
06
06
ENDCHAR
STARTCHAR 0035
ENCODING 53
SWIDTH 664 0
DWIDTH 9 0
BBX 8 12 -1 -1
BITMAP
7F
7E
60
60
7E
7F
47
03
43
E7
7E
3C
ENDCHAR
STARTCHAR 0036
ENCODING 54
SWIDTH 590 0
DWIDTH 8 0
BBX 7 12 -1 -1
BITMAP
0E
1C
38
70
60
F8
FC
EE
C6
EE
7C
38
ENDCHAR
STARTCHAR 0037
ENCODING 55
SWIDTH 664 0
DWIDTH 9 0
BBX 8 12 -1 -1
BITMAP
FF
FF
06
06
0E
0C
0C
18
18
38
30
70
ENDCHAR
STARTCHAR 0038
ENCODING 56
SWIDTH 590 0
DWIDTH 8 0
BBX 7 12 -1 -1
BITMAP
38
7C
EE
C6
C6
EE
7C
EE
C6
EE
7C
38
ENDCHAR
STARTCHAR 0039
ENCODING 57
SWIDTH 590 0
DWIDTH 8 0
BBX 7 12 -1 -1
BITMAP
38
7C
EE
C6
C6
EE
7E
3E
08
18
30
60
ENDCHAR
STARTCHAR 003A
ENCODING 58
SWIDTH 221 0
DWIDTH 3 0
BBX 2 7 -1 -1
BITMAP
C0
C0
00
00
00
C0
C0
ENDCHAR
STARTCHAR 003B
ENCODING 59
SWIDTH 221 0
DWIDTH 3 0
BBX 2 9 -1 -3
BITMAP
C0
C0
00
00
00
C0
C0
40
80
ENDCHAR
STARTCHAR 003F
ENCODING 63
SWIDTH 664 0
DWIDTH 9 0
BBX 8 12 -1 -1
BITMAP
3C
7E
E7
C3
03
07
0E
1C
18
00
18
18
ENDCHAR
STARTCHAR 0041
ENCODING 65
SWIDTH 812 0
DWIDTH 11 0
BBX 10 12 -1 -1
BITMAP
0C00
0C00
1E00
1E00
3300
3300
3300
7F80
7F80
C0C0
C0C0
C0C0
ENDCHAR
STARTCHAR 0042
ENCODING 66
SWIDTH 664 0
DWIDTH 9 0
BBX 8 12 -1 -1
BITMAP
F8
FC
CE
C6
CE
FC
FE
C7
C3
C7
FE
FC
ENDCHAR
STARTCHAR 0043
ENCODING 67
SWIDTH 812 0
DWIDTH 11 0
BBX 10 12 -1 -1
BITMAP
0F00
3FC0
70C0
6000
C000
C000
C000
C000
6000
70C0
3FC0
0F00
ENDCHAR
STARTCHAR 0044
ENCODING 68
SWIDTH 812 0
DWIDTH 11 0
BBX 10 12 -1 -1
BITMAP
FC00
FF00
C380
C180
C0C0
C0C0
C0C0
C0C0
C180
C380
FF00
FC00
ENDCHAR
STARTCHAR 0045
ENCODING 69
SWIDTH 590 0
DWIDTH 8 0
BBX 7 12 -1 -1
BITMAP
FE
FE
C0
C0
C0
FC
FC
C0
C0
C0
FE
FE
ENDCHAR
STARTCHAR 0046
ENCODING 70
SWIDTH 590 0
DWIDTH 8 0
BBX 7 12 -1 -1
BITMAP
FE
FE
C0
C0
C0
FC
FC
C0
C0
C0
C0
C0
ENDCHAR
STARTCHAR 0047
ENCODING 71
SWIDTH 812 0
DWIDTH 11 0
BBX 10 12 -1 -1
BITMAP
0F00
3FC0
71C0
6000
C000
C000
C7C0
C7C0
60C0
70C0
3FC0
0F00
ENDCHAR
STARTCHAR 0048
ENCODING 72
SWIDTH 664 0
DWIDTH 9 0
BBX 8 12 -1 -1
BITMAP
C3
C3
C3
C3
C3
FF
FF
C3
C3
C3
C3
C3
ENDCHAR
STARTCHAR 0049
ENCODING 73
SWIDTH 221 0
DWIDTH 3 0
BBX 2 12 -1 -1
BITMAP
C0
C0
C0
C0
C0
C0
C0
C0
C0
C0
C0
C0
ENDCHAR
STARTCHAR 004A
ENCODING 74
SWIDTH 664 0
DWIDTH 9 0
BBX 8 12 -1 -1
BITMAP
03
03
03
03
03
03
03
03
43
E7
7E
3C
ENDCHAR
STARTCHAR 004B
ENCODING 75
SWIDTH 812 0
DWIDTH 11 0
BBX 10 12 -1 -1
BITMAP
C380
C700
CE00
CC00
D800
F800
F800
DC00
CE00
C700
C380
C1C0
ENDCHAR
STARTCHAR 004C
ENCODING 76
SWIDTH 590 0
DWIDTH 8 0
BBX 7 12 -1 -1
BITMAP
C0
C0
C0
C0
C0
C0
C0
C0
C0
C0
FE
FE
ENDCHAR
STARTCHAR 004D
ENCODING 77
SWIDTH 886 0
DWIDTH 12 0
BBX 12 12 -1 -1
BITMAP
C030
E070
F0F0
F9F0
DBB0
CF30
CE30
C430
C030
C030
C030
C030
ENDCHAR
STARTCHAR 004E
ENCODING 78
SWIDTH 812 0
DWIDTH 11 0
BBX 11 12 -1 -1
BITMAP
C060
C060
E060
F060
F860
D860
CC60
CF60
C3E0
C1E0
C0E0
C060
ENDCHAR
STARTCHAR 004F
ENCODING 79
SWIDTH 886 0
DWIDTH 12 0
BBX 12 12 -1 -1
BITMAP
0F00
3FC0
70E0
E070
C030
C030
C030
C030
E070
70E0
3FC0
0F00
ENDCHAR
STARTCHAR 0050
ENCODING 80
SWIDTH 664 0
DWIDTH 9 0
BBX 8 12 -1 -1
BITMAP
FC
FE
C7
C3
C3
C7
FE
FC
C0
C0
C0
C0
ENDCHAR
STARTCHAR 0051
ENCODING 81
SWIDTH 960 0
DWIDTH 13 0
BBX 12 12 -1 -1
BITMAP
0F00
3FC0
70E0
E070
C030
C030
C030
C1B0
E1F0
70E0
3FF0
0F30
ENDCHAR
STARTCHAR 0052
ENCODING 82
SWIDTH 738 0
DWIDTH 10 0
BBX 9 12 -1 -1
BITMAP
FC00
FE00
C700
C300
C700
FE00
FC00
CE00
C600
C700
C300
C380
ENDCHAR
STARTCHAR 0053
ENCODING 83
SWIDTH 664 0
DWIDTH 9 0
BBX 8 12 -1 -1
BITMAP
1C
3E
74
60
70
38
0E
07
43
E7
7E
3C
ENDCHAR
STARTCHAR 0054
ENCODING 84
SWIDTH 738 0
DWIDTH 10 0
BBX 9 12 -1 -1
BITMAP
FF80
FF80
0800
0800
0800
0800
0800
0800
0800
0800
0800
0800
ENDCHAR
STARTCHAR 0055
ENCODING 85
SWIDTH 812 0
DWIDTH 11 0
BBX 10 12 -1 -1
BITMAP
C0C0
C0C0
C0C0
C0C0
C0C0
C0C0
C0C0
C0C0
E1C0
7380
3F00
1E00
ENDCHAR
STARTCHAR 0056
ENCODING 86
SWIDTH 812 0
DWIDTH 11 0
BBX 10 12 -1 -1
BITMAP
C0C0
C0C0
6180
6180
6180
3300
3300
3F00
1E00
1E00
0C00
0C00
ENDCHAR
STARTCHAR 0057
ENCODING 87
SWIDTH 886 0
DWIDTH 12 0
BBX 12 12 -1 -1
BITMAP
C030
C030
CE30
6E60
6F60
6B60
6B60
6B60
39C0
39C0
39C0
39C0
ENDCHAR
STARTCHAR 0058
ENCODING 88
SWIDTH 664 0
DWIDTH 9 0
BBX 8 12 -1 -1
BITMAP
C3
E3
67
7E
3C
1C
18
3C
7E
66
E7
C3
ENDCHAR
STARTCHAR 0059
ENCODING 89
SWIDTH 812 0
DWIDTH 11 0
BBX 11 12 -1 -1
BITMAP
E0E0
71C0
3180
3B80
1F00
0E00
0C00
0C00
0C00
0C00
0C00
0C00
ENDCHAR
STARTCHAR 005A
ENCODING 90
SWIDTH 738 0
DWIDTH 10 0
BBX 9 12 -1 -1
BITMAP
FF80
FF00
0700
0E00
0C00
0C00
1800
3800
7000
6000
FF00
FF80
ENDCHAR
STARTCHAR 005F
ENCODING 95
SWIDTH 590 0
DWIDTH 8 0
BBX 7 2 -1 -3
BITMAP
FE
FE
ENDCHAR
STARTCHAR 0061
ENCODING 97
SWIDTH 590 0
DWIDTH 8 0
BBX 7 9 -1 -1
BITMAP
78
FC
86
1E
FE
C2
C2
FE
7E
ENDCHAR
STARTCHAR 0062
ENCODING 98
SWIDTH 664 0
DWIDTH 9 0
BBX 8 12 -1 -1
BITMAP
C0
C0
C0
C0
DC
FE
E7
C3
C3
E7
FE
DC
ENDCHAR
STARTCHAR 0063
ENCODING 99
SWIDTH 590 0
DWIDTH 8 0
BBX 7 9 -1 -1
BITMAP
3C
7E
E6
C0
C0
C0
E6
7E
3C
ENDCHAR
STARTCHAR 0064
ENCODING 100
SWIDTH 664 0
DWIDTH 9 0
BBX 8 12 -1 -1
BITMAP
03
03
03
3B
7F
E7
C3
C3
C3
E3
7F
3B
ENDCHAR
STARTCHAR 0065
ENCODING 101
SWIDTH 590 0
DWIDTH 8 0
BBX 7 9 -1 -1
BITMAP
38
7C
EE
C6
FE
C0
E2
7E
3C
ENDCHAR
STARTCHAR 0066
ENCODING 102
SWIDTH 443 0
DWIDTH 6 0
BBX 5 12 -1 -1
BITMAP
38
78
60
F8
F8
60
60
60
60
60
60
60
ENDCHAR
STARTCHAR 0067
ENCODING 103
SWIDTH 590 0
DWIDTH 8 0
BBX 7 12 -1 -4
BITMAP
3E
7E
6C
6C
7C
60
38
7C
C6
C6
FE
7C
ENDCHAR
STARTCHAR 0068
ENCODING 104
SWIDTH 590 0
DWIDTH 8 0
BBX 7 12 -1 -1
BITMAP
C0
C0
C0
D8
FC
EE
C6
C6
C6
C6
C6
C6
ENDCHAR
STARTCHAR 0069
ENCODING 105
SWIDTH 221 0
DWIDTH 3 0
BBX 2 12 -1 -1
BITMAP
C0
C0
00
C0
C0
C0
C0
C0
C0
C0
C0
C0
ENDCHAR
STARTCHAR 006A
ENCODING 106
SWIDTH 664 0
DWIDTH 9 0
BBX 4 15 3 -4
BITMAP
30
30
00
30
30
30
30
30
30
30
30
30
30
F0
E0
ENDCHAR
STARTCHAR 006B
ENCODING 107
SWIDTH 664 0
DWIDTH 9 0
BBX 8 12 -1 -1
BITMAP
C0
C0
C0
CE
CC
D8
F8
F8
D8
CC
CE
C7
ENDCHAR
STARTCHAR 006C
ENCODING 108
SWIDTH 295 0
DWIDTH 4 0
BBX 4 12 -1 -1
BITMAP
C0
C0
C0
C0
C0
C0
C0
C0
C0
C0
F0
70
ENDCHAR
STARTCHAR 006D
ENCODING 109
SWIDTH 812 0
DWIDTH 11 0
BBX 11 9 -1 -1
BITMAP
DBC0
FFE0
CC60
CC60
CC60
CC60
CC60
CC60
CC60
ENDCHAR
STARTCHAR 006E
ENCODING 110
SWIDTH 590 0
DWIDTH 8 0
BBX 7 9 -1 -1
BITMAP
D8
FC
EE
C6
C6
C6
C6
C6
C6
ENDCHAR
STARTCHAR 006F
ENCODING 111
SWIDTH 738 0
DWIDTH 10 0
BBX 9 9 -1 -1
BITMAP
3E00
7F00
E380
C180
C180
C180
E380
7F00
3E00
ENDCHAR
STARTCHAR 0070
ENCODING 112
SWIDTH 664 0
DWIDTH 9 0
BBX 8 12 -1 -4
BITMAP
DC
FE
E7
C3
C3
C3
E7
FE
DC
C0
C0
C0
ENDCHAR
STARTCHAR 0071
ENCODING 113
SWIDTH 664 0
DWIDTH 9 0
BBX 8 12 -1 -4
BITMAP
3B
7F
E7
C3
C3
C3
E7
7F
3B
03
03
03
ENDCHAR
STARTCHAR 0072
ENCODING 114
SWIDTH 369 0
DWIDTH 5 0
BBX 5 9 -1 -1
BITMAP
D8
F8
E0
C0
C0
C0
C0
C0
C0
ENDCHAR
STARTCHAR 0073
ENCODING 115
SWIDTH 516 0
DWIDTH 7 0
BBX 6 9 -1 -1
BITMAP
78
FC
C4
C0
FC
0C
8C
FC
78
ENDCHAR
STARTCHAR 0074
ENCODING 116
SWIDTH 443 0
DWIDTH 6 0
BBX 5 11 -1 -1
BITMAP
60
60
F8
F8
60
60
60
60
60
78
38
ENDCHAR
STARTCHAR 0075
ENCODING 117
SWIDTH 590 0
DWIDTH 8 0
BBX 7 9 -1 -1
BITMAP
C6
C6
C6
C6
C6
C6
EE
7E
3E
ENDCHAR
STARTCHAR 0076
ENCODING 118
SWIDTH 664 0
DWIDTH 9 0
BBX 8 9 -1 -1
BITMAP
C3
C3
66
66
7E
3C
3C
18
18
ENDCHAR
STARTCHAR 0077
ENCODING 119
SWIDTH 1033 0
DWIDTH 14 0
BBX 13 9 -1 -1
BITMAP
C218
C218
6710
6710
7FB0
3DB0
3DB0
18E0
18E0
ENDCHAR
STARTCHAR 0078
ENCODING 120
SWIDTH 516 0
DWIDTH 7 0
BBX 6 9 -1 -1
BITMAP
CC
CC
68
68
38
68
68
CC
CC
ENDCHAR
STARTCHAR 0079
ENCODING 121
SWIDTH 664 0
DWIDTH 9 0
BBX 8 12 -1 -4
BITMAP
C3
C3
66
66
7E
3C
3C
18
18
18
F8
F0
ENDCHAR
STARTCHAR 007A
ENCODING 122
SWIDTH 590 0
DWIDTH 8 0
BBX 7 9 -1 0
BITMAP
FE
FC
08
08
18
30
60
FE
FE
ENDCHAR
STARTCHAR 00A0
ENCODING 160
SWIDTH 295 0
DWIDTH 4 0
BBX 0 0 0 0
BITMAP
ENDCHAR
ENDFONT
